{"title":"Conagher  (Western 1991)  Sam Elliott, Katharine Ross &amp; Barr","uid":9248712,"size":529633649,"categoryP":"video","categoryS":"movies","magnet":"?xt=urn:btih:3d8d5d36b20a278d7871a84fc78fbae93e1c61dc&amp;dn=Conagher++%28Western+1991%29++Sam+Elliott%2C+Katharine+Ross+%26amp%3B+Barr&amp;tr=udp%3A%2F%2Ftracker.openbittorrent.com%3A80&amp;tr=udp%3A%2F%2Fopen.demonii.com%3A1337&amp;tr=udp%3A%2F%2Ftracker.coppersurfer.tk%3A6969&amp;tr=udp%3A%2F%2Fexodus.desync.com%3A6969","seeders":2,"leechers":1,"uploader":"BurtonW","files":1,"time":1385424849,"description":" &lt;a href=&quot;http://www.imdb.com/title/tt0101609/?ref_=fn_al_tt_1&quot; rel=&quot;nofollow&quot; target=&quot;_NEW&quot;&gt;http://www.imdb.com/title/tt0101609/?ref_=fn_al_tt_1&lt;/a&gt;\n\nVery good quality.\n\nNo subtitles!\n\n\nStoryline\n\nMrs. Evie Teale is struggling to stay alive while raising her two children alone on a remote homestead. Conn Conagher is a honest, hardworking cowboy. Their lives are intertwined as they fight the elements, indians, outlaws, and loneliness.\n\n\nTechnical info:\n\n\nGeneral:\n\nComplete name                  : Conagher (Western 1991) Sam Elliott, Katharine Ross &amp; Barry Corbin.mp4\nFormat                         : MPEG-4\nFormat profile                 : Base Media / Version 2\nCodec ID                       : mp42\nFile size                      : 505 MiB\nDuration                       : 1h 52mn\nOverall bit rate mode          : Variable\nOverall bit rate               : 630 Kbps\nEncoded date                   : UTC 2013-09-16 15:17:27\nTagged date                    : UTC 2013-09-16 16:34:45\n\n\nVideo:\n\nID                             : 1\nFormat                         : AVC\nFormat/Info                    : Advanced Video Codec\nFormat profile                 : &lt;a class=&quot;__cf_email__&quot; href=&quot;/cdn-cgi/l/email-protection&quot; data-cfemail=&quot;773a161e19373b435947&quot;&gt;[email&amp;#160;protected]&lt;/a&gt;&lt;script cf-hash='f9e31' type=&quot;text/javascript&quot;&gt;\n/* &lt;![CDATA[ */!function(){try{var t=&quot;currentScript&quot;in document?document.currentScript:function(){for(var t=document.getElementsByTagName(&quot;script&quot;),e=t.length;e--;)if(t[e].getAttribute(&quot;cf-hash&quot;))return t[e]}();if(t&amp;&amp;t.previousSibling){var e,r,n,i,c=t.previousSibling,a=c.getAttribute(&quot;data-cfemail&quot;);if(a){for(e=&quot;&quot;,r=parseInt(a.substr(0,2),16),n=2;a.length-n;n+=2)i=parseInt(a.substr(n,2),16)^r,e+=String.fromCharCode(i);e=document.createTextNode(e),c.parentNode.replaceChild(e,c)}}}catch(u){}}();/* ]]&gt; */&lt;/script&gt;\nFormat settings, CABAC         : Yes\nFormat settings, ReFrames      : 4 frames\nCodec ID                       : avc1\nCodec ID/Info                  : Advanced Video Coding\nDuration                       : 1h 52mn\nBit rate mode                  : Variable\nBit rate                       : 464 Kbps\nWidth                          : 640 pixels\nHeight                         : 478 pixels\nDisplay aspect ratio           : 4:3\nFrame rate mode                : Constant\nFrame rate                     : 24.000 fps\nColor space                    : YUV\nChroma subsampling             : 4:2:0\nBit depth                      : 8 bits\nScan type                      : Progressive\nBits/(Pixel*Frame)             : 0.063\nStream size                    : 373 MiB (74%)\nWriting library                : x264 core 130 r2273 b3065e6\nEncoding settings              : Deleted\nEncoded date                   : UTC 2013-09-16 15:17:27\nTagged date                    : UTC 2013-09-16 16:34:45\nColor primaries                : BT.601 PAL\nTransfer characteristics       : BT.709\nMatrix coefficients            : BT.601\n\nAudio:\n\nID                             : 2\nFormat                         : AAC\nFormat/Info                    : Advanced Audio Codec\nFormat profile                 : LC\nCodec ID                       : 40\nDuration                       : 1h 52mn\nBit rate mode                  : Variable\nBit rate                       : 160 Kbps\nMaximum bit rate               : 287 Kbps\nChannel(s)                     : 2 channels\nChannel positions              : Front: L R\nSampling rate                  : 48.0 KHz\nCompression mode               : Lossy\nDelay relative to video        : 83ms\nStream size                    : 128 MiB (25%)\nEncoded date                   : UTC 2013-09-16 15:17:27\nTagged date                    : UTC 2013-09-16 16:34:44\n\n","torrent":{"xt":"urn:btih:3d8d5d36b20a278d7871a84fc78fbae93e1c61dc","amp;dn":"Conagher++%28Western+1991%29++Sam+Elliott%2C+Katharine+Ross+%26amp%3B+Barr","amp;tr":["udp%3A%2F%2Ftracker.openbittorrent.com%3A80","udp%3A%2F%2Fopen.demonii.com%3A1337","udp%3A%2F%2Ftracker.coppersurfer.tk%3A6969","udp%3A%2F%2Fexodus.desync.com%3A6969"],"infoHash":"3d8d5d36b20a278d7871a84fc78fbae93e1c61dc","infoHashBuffer":{"type":"Buffer","data":[61,141,93,54,178,10,39,141,120,113,168,79,199,143,186,233,62,28,97,220]},"announce":[],"urlList":[]}}